<svg xmlns="http://www.w3.org/2000/svg" viewBox="0 0 69 69"><path fill="#e4c95c" d="m9.71 5.02-.52.143a.958.958 0 0 0-.668.668l-.144.52-.144-.52a.956.956 0 0 0-.667-.667l-.522-.145.522-.144a.956.956 0 0 0 .667-.667l.144-.52.144.52c.09.325.343.578.667.668l.521.143zm54.537 2.664-.521.143a.958.958 0 0 0-.667.668l-.144.521-.144-.521a.956.956 0 0 0-.668-.667l-.52-.144.52-.144a.956.956 0 0 0 .668-.667l.144-.521.144.52c.09.325.343.578.667.668l.521.144zm1.342 53.831-.522.144a.958.958 0 0 0-.667.667l-.144.522-.144-.522a.956.956 0 0 0-.667-.667l-.521-.144.52-.144a.956.956 0 0 0 .668-.667l.144-.52.144.52c.09.325.343.578.667.668l.522.143z"/><circle cx="34.498" cy="34.003" r="32" fill="#fbe2cb"/><path fill="#e4c95c" d="m7.3 48.911-.52.144a.958.958 0 0 0-.668.667l-.144.522-.144-.522a.956.956 0 0 0-.667-.667l-.521-.144.52-.144a.956.956 0 0 0 .668-.667l.144-.52.144.52c.09.325.343.578.668.668l.52.143zM65.029 33.56l-.302.083a.555.555 0 0 0-.387.387l-.083.302-.083-.302a.554.554 0 0 0-.387-.387l-.302-.083.302-.084a.554.554 0 0 0 .387-.386l.083-.302.083.302a.555.555 0 0 0 .387.387l.302.083zm-49.333-4.906-.343.095a.63.63 0 0 0-.44.44l-.095.342-.095-.343a.63.63 0 0 0-.44-.44l-.342-.094.343-.095a.63.63 0 0 0 .44-.44l.094-.342.095.343a.63.63 0 0 0 .44.44l.343.094zm6.078-16.444-.343.095a.63.63 0 0 0-.44.44l-.094.343-.095-.343a.63.63 0 0 0-.44-.44l-.343-.095.343-.095a.63.63 0 0 0 .44-.439l.095-.343.094.343a.63.63 0 0 0 .44.44l.343.094z"/><ellipse cx="34.5" cy="49.653" fill="#c3cce9" rx="30.658" ry="15.329"/><ellipse cx="34.5" cy="38.233" fill="#e8f3ff" rx="24.734" ry="11.838"/><ellipse cx="34.5" cy="25" fill="#e4c95c" rx="19.922" ry="11.497"/><ellipse cx="34.5" cy="14.294" fill="#e8f3ff" rx="13.468" ry="8.814"/><path fill="#2d346a" d="M66.72 64.998H45.54c12.152-2.265 20.618-8.2 20.618-15.345 0-3.692-2.272-7.057-6.136-9.764a6.868 6.868 0 0 0 .211-1.656c0-3.29-2.384-6.241-6.334-8.485.977-1.459 1.523-3.058 1.523-4.749 0-3.676-2.546-6.923-6.648-9.189a6.75 6.75 0 0 0 .192-1.52c0-4.934-5.212-9.02-12.393-9.716a.994.994 0 0 0-1.092.899 1 1 0 0 0 .899 1.091c6.035.586 10.586 3.907 10.586 7.725 0 4.313-5.594 7.82-12.47 7.82-6.87 0-12.46-3.507-12.46-7.82 0-3.496 3.933-6.672 9.35-7.552a1.001 1.001 0 0 0-.32-1.975c-6.494 1.055-11.03 4.973-11.03 9.527 0 .529.08 1.044.198 1.55-4.102 2.256-6.656 5.487-6.656 9.16 0 1.683.542 3.274 1.51 4.727-3.95 2.25-6.322 5.214-6.322 8.507 0 .573.079 1.134.218 1.685-3.86 2.699-6.142 6.05-6.142 9.735 0 7.144 8.466 13.08 20.618 15.344H2.28a1 1 0 1 0 0 2h64.44a1 1 0 1 0 0-2zM20.97 17.732c2.06 3.72 7.337 6.377 13.525 6.377 6.212 0 11.506-2.675 13.554-6.413 3.316 1.89 5.372 4.463 5.372 7.303 0 5.789-8.488 10.498-18.922 10.498s-18.922-4.71-18.922-10.498c0-2.836 2.076-5.386 5.393-7.267zM16.396 31.33c3.588 3.712 10.271 6.167 18.104 6.167 7.827 0 14.505-2.451 18.095-6.159 3.487 1.89 5.638 4.297 5.638 6.895 0 5.875-10.868 10.838-23.733 10.838s-23.734-4.963-23.734-10.838c0-2.598 2.144-5.012 5.63-6.903zM4.842 49.653c0-2.9 1.817-5.59 4.905-7.844 3.034 5.405 12.82 9.262 24.753 9.262 11.942 0 21.735-3.864 24.76-9.275 3.083 2.258 4.898 4.955 4.898 7.857 0 7.901-13.304 14.33-29.658 14.33S4.842 57.553 4.842 49.652z"/></svg>